<?xml version="1.0" standalone="no"?>
<!DOCTYPE svg PUBLIC "-//W3C//DTD SVG 20010904//EN"
 "http://www.w3.org/TR/2001/REC-SVG-20010904/DTD/svg10.dtd">
<svg version="1.0" xmlns="http://www.w3.org/2000/svg"
 width="188.000000pt" height="188.000000pt" viewBox="0 0 188.000000 188.000000"
 preserveAspectRatio="xMidYMid meet">
<metadata>
Created by potrace 1.14, written by Peter Selinger 2001-2017
</metadata>
<g transform="translate(0.000000,188.000000) scale(0.100000,-0.100000)"
fill="#000000" stroke="none">
<path d="M0 940 l0 -940 183 0 182 0 38 63 c20 35 37 70 37 78 0 14 52 49 72
49 6 0 16 -7 22 -15 9 -12 18 -13 45 -5 19 5 38 15 42 21 4 7 13 -2 24 -25 11
-22 27 -39 41 -42 27 -7 31 -19 9 -28 -8 -3 -15 -9 -14 -13 4 -22 -3 -33 -18
-34 -12 0 -6 -6 15 -16 17 -9 32 -20 32 -24 0 -3 137 -7 304 -8 l305 -2 -11
33 c-6 18 -13 50 -15 71 -5 34 -3 38 13 35 14 -2 19 -12 19 -33 0 -22 4 -29
16 -27 9 1 24 -14 38 -38 l22 -40 240 0 239 0 0 940 0 940 -940 0 -940 0 0
-940z m1133 610 c15 -33 27 -70 27 -82 0 -51 68 -216 107 -260 17 -19 10 -38
-15 -38 -10 -1 -1 -9 20 -20 34 -18 68 -66 68 -97 0 -16 -17 -16 -92 -1 -44 9
-69 9 -101 1 -43 -12 -97 -7 -97 8 0 5 27 25 59 46 32 21 67 43 78 50 15 10
11 12 -30 12 -71 1 -111 -19 -143 -74 -43 -75 -55 -121 -56 -225 0 -107 6
-140 28 -140 25 0 15 -29 -22 -66 -40 -41 -43 -77 -7 -82 28 -4 81 32 93 63
12 31 -6 92 -36 128 -22 26 -22 29 -8 70 19 52 24 110 10 119 -7 5 -7 11 2 20
9 9 12 9 12 -5 0 -23 7 -21 33 7 25 27 35 24 56 -15 13 -26 64 -49 109 -49 12
0 40 19 64 41 24 23 54 48 68 55 23 13 26 12 42 -19 23 -43 22 -59 -6 -115
-15 -27 -28 -74 -31 -112 -8 -78 -28 -152 -49 -182 -9 -12 -16 -28 -16 -36 0
-20 -37 -97 -53 -111 -8 -6 -22 -31 -32 -56 -9 -25 -23 -45 -31 -45 -7 0 -22
-17 -33 -39 -31 -60 -135 -148 -193 -161 -88 -22 -135 -3 -222 87 -28 29 -54
53 -58 53 -11 0 -77 73 -78 85 0 6 -14 30 -30 55 -16 25 -30 58 -30 73 0 15
-7 38 -16 52 -8 13 -21 68 -29 122 -8 54 -21 118 -30 143 -9 25 -18 70 -22
100 -4 46 -2 58 14 73 19 16 21 16 38 -3 10 -11 24 -20 31 -20 7 0 17 -7 21
-15 5 -8 31 -19 58 -25 66 -14 68 -14 81 -23 23 -14 69 5 92 36 12 18 28 41
37 52 13 18 12 26 -15 81 -39 82 -82 94 -175 49 -27 -14 -60 -25 -72 -25 -25
0 -43 27 -43 65 0 42 73 216 123 294 55 84 112 119 204 125 32 2 78 11 103 19
25 8 72 15 106 16 l61 1 26 -60z m-478 -580 c5 -22 13 -30 28 -31 19 -1 19 -2
3 -6 -12 -3 -27 5 -42 24 -27 33 -29 43 -10 43 8 0 17 -13 21 -30z m570 0 c-3
-5 -12 -10 -18 -10 -7 0 -6 4 3 10 19 12 23 12 15 0z"/>
<path d="M870 615 c7 -9 15 -13 17 -11 7 7 -7 26 -19 26 -6 0 -6 -6 2 -15z"/>
<path d="M783 500 c-39 -8 -75 -18 -78 -22 -4 -4 9 -13 28 -22 20 -8 41 -24
47 -36 12 -22 55 -45 79 -41 10 2 12 -5 8 -28 l-6 -31 78 0 c63 0 81 4 94 18
10 10 17 23 17 29 0 6 14 23 30 36 37 32 38 54 3 68 -15 6 -43 18 -62 26 -44
21 -145 22 -238 3z m133 -61 c7 -11 -12 -29 -31 -29 -6 0 -16 9 -23 20 -11 18
-10 20 17 20 17 0 33 -5 37 -11z m63 -53 c10 -12 9 -17 -6 -24 -28 -14 -83
-23 -83 -13 0 5 -3 16 -6 25 -4 11 3 16 33 19 21 2 41 4 44 5 4 1 12 -4 18
-12z"/>
</g>
</svg>
